<svg width="30" height="30" viewBox="0 0 30 30" fill="none" xmlns="http://www.w3.org/2000/svg">
<defs>
<clipPath id="clip0">
<rect width="30" height="30" fill="white"/>
</clipPath>
</defs>
<g clip-path="url(#clip0)">
<path d="M29.6135 23.8121L17.308 3.40441C16.8232 2.60045 15.9388 2.10099 15 2.10099C14.0611 2.10099 13.1768 2.60045 12.6919 3.40447L0.386452 23.8121C-0.114584 24.6431 -0.129408 25.6842 0.347721 26.5291C0.824967 27.3741 1.72415 27.8989 2.69446 27.8989H27.3055C28.2758 27.8989 29.175 27.3741 29.6523 26.5291C30.1294 25.6841 30.1146 24.643 29.6135 23.8121ZM27.9515 25.5687C27.8202 25.8012 27.5726 25.9458 27.3055 25.9458H2.69446C2.42733 25.9458 2.17977 25.8013 2.04846 25.5687C1.9171 25.3361 1.9212 25.0495 2.05907 24.8208L14.3646 4.41305C14.4981 4.19174 14.7416 4.05422 15 4.05422C15.2584 4.05422 15.5019 4.19174 15.6354 4.41305L27.9408 24.8208C28.0788 25.0495 28.0829 25.3361 27.9515 25.5687Z" fill="#FF7D7D"/>
<path d="M15.0088 10.137C14.2659 10.137 13.686 10.5357 13.686 11.2424C13.686 13.3988 13.9397 16.4975 13.9397 18.6539C13.9397 19.2156 14.4291 19.4512 15.0089 19.4512C15.4438 19.4512 16.0599 19.2156 16.0599 18.6539C16.0599 16.4975 16.3136 13.3989 16.3136 11.2424C16.3136 10.5357 15.7156 10.137 15.0088 10.137Z" fill="#FF7D7D"/>
<path d="M15.0272 20.7015C14.2299 20.7015 13.6318 21.3357 13.6318 22.0969C13.6318 22.8398 14.2298 23.4922 15.0272 23.4922C15.7702 23.4922 16.4044 22.8398 16.4044 22.0969C16.4044 21.3357 15.7701 20.7015 15.0272 20.7015Z" fill="#FF7D7D"/>
</g>
</svg>
