<svg width="24" height="24" viewBox="0 0 24 24" fill="none" xmlns="http://www.w3.org/2000/svg">
<path d="M11.9999 0.333328C10.4678 0.333328 8.95074 0.635096 7.53528 1.2214C6.11981 1.80771 4.83369 2.66707 3.75034 3.75042C1.56242 5.93834 0.333252 8.9058 0.333252 12C0.333252 15.0942 1.56242 18.0617 3.75034 20.2496C4.83369 21.3329 6.11981 22.1923 7.53528 22.7786C8.95074 23.3649 10.4678 23.6667 11.9999 23.6667C15.0941 23.6667 18.0616 22.4375 20.2495 20.2496C22.4374 18.0617 23.6666 15.0942 23.6666 12C23.6666 10.4679 23.3648 8.95082 22.7785 7.53536C22.1922 6.11989 21.3328 4.83377 20.2495 3.75042C19.1661 2.66707 17.88 1.80771 16.4646 1.2214C15.0491 0.635096 13.532 0.333328 11.9999 0.333328ZM6.24825 19.3267C6.74992 18.2767 9.80659 17.25 11.9999 17.25C14.1933 17.25 17.2499 18.2767 17.7516 19.3267C16.1175 20.6287 14.0893 21.3363 11.9999 21.3333C9.82992 21.3333 7.83492 20.5867 6.24825 19.3267ZM19.4199 17.635C17.7516 15.605 13.7033 14.9167 11.9999 14.9167C10.2966 14.9167 6.24825 15.605 4.57992 17.635C3.3388 16.0187 2.6662 14.0378 2.66659 12C2.66659 6.855 6.85492 2.66666 11.9999 2.66666C17.1449 2.66666 21.3333 6.855 21.3333 12C21.3333 14.1233 20.6099 16.0833 19.4199 17.635ZM11.9999 5C9.73659 5 7.91659 6.82 7.91659 9.08333C7.91659 11.3467 9.73659 13.1667 11.9999 13.1667C14.2633 13.1667 16.0833 11.3467 16.0833 9.08333C16.0833 6.82 14.2633 5 11.9999 5ZM11.9999 10.8333C11.5358 10.8333 11.0907 10.649 10.7625 10.3208C10.4343 9.99258 10.2499 9.54746 10.2499 9.08333C10.2499 8.6192 10.4343 8.17408 10.7625 7.84589C11.0907 7.5177 11.5358 7.33333 11.9999 7.33333C12.464 7.33333 12.9092 7.5177 13.2374 7.84589C13.5655 8.17408 13.7499 8.6192 13.7499 9.08333C13.7499 9.54746 13.5655 9.99258 13.2374 10.3208C12.9092 10.649 12.464 10.8333 11.9999 10.8333Z" fill="white"/>
</svg>
