<svg width="24" height="24" viewBox="0 0 24 24" fill="none" xmlns="http://www.w3.org/2000/svg">
    <defs>
        <linearGradient id="paint0_linear" x1="12.6328" y1="-5.26667" x2="26.5141" y2="14.1828" gradientUnits="userSpaceOnUse">
            <stop offset="0" stop-color="#3DABE9"/>
            <stop offset="1" stop-color="#1465DD"/>
        </linearGradient>
    </defs>
<path d="M12 0.333328C10.4679 0.333328 8.95084 0.635096 7.53537 1.2214C6.1199 1.80771 4.83378 2.66707 3.75043 3.75042C1.56251 5.93834 0.333344 8.9058 0.333344 12C0.333344 15.0942 1.56251 18.0617 3.75043 20.2496C4.83378 21.3329 6.1199 22.1923 7.53537 22.7786C8.95084 23.3649 10.4679 23.6667 12 23.6667C15.0942 23.6667 18.0617 22.4375 20.2496 20.2496C22.4375 18.0617 23.6667 15.0942 23.6667 12C23.6667 10.4679 23.3649 8.95082 22.7786 7.53536C22.1923 6.11989 21.3329 4.83377 20.2496 3.75042C19.1662 2.66707 17.8801 1.80771 16.4647 1.2214C15.0492 0.635096 13.5321 0.333328 12 0.333328ZM6.24834 19.3267C6.75001 18.2767 9.80668 17.25 12 17.25C14.1933 17.25 17.25 18.2767 17.7517 19.3267C16.1176 20.6287 14.0894 21.3363 12 21.3333C9.83001 21.3333 7.83501 20.5867 6.24834 19.3267ZM19.42 17.635C17.7517 15.605 13.7033 14.9167 12 14.9167C10.2967 14.9167 6.24834 15.605 4.58001 17.635C3.33889 16.0187 2.66629 14.0378 2.66668 12C2.66668 6.855 6.85501 2.66666 12 2.66666C17.145 2.66666 21.3333 6.855 21.3333 12C21.3333 14.1233 20.61 16.0833 19.42 17.635ZM12 5C9.73668 5 7.91668 6.82 7.91668 9.08333C7.91668 11.3467 9.73668 13.1667 12 13.1667C14.2633 13.1667 16.0833 11.3467 16.0833 9.08333C16.0833 6.82 14.2633 5 12 5ZM12 10.8333C11.5359 10.8333 11.0908 10.649 10.7626 10.3208C10.4344 9.99258 10.25 9.54746 10.25 9.08333C10.25 8.6192 10.4344 8.17408 10.7626 7.84589C11.0908 7.5177 11.5359 7.33333 12 7.33333C12.4641 7.33333 12.9093 7.5177 13.2374 7.84589C13.5656 8.17408 13.75 8.6192 13.75 9.08333C13.75 9.54746 13.5656 9.99258 13.2374 10.3208C12.9093 10.649 12.4641 10.8333 12 10.8333Z" fill="url(#paint0_linear)"/>
</svg>
