<svg width="28" height="24" viewBox="0 0 28 24" fill="none" xmlns="http://www.w3.org/2000/svg">
<path d="M12.0049 2.50336L2.12324 19C1.9195 19.3529 1.8117 19.7529 1.81056 20.1603C1.80942 20.5677 1.91497 20.9683 2.11673 21.3223C2.31849 21.6763 2.60942 21.9712 2.96056 22.1779C3.31171 22.3845 3.71083 22.4955 4.11824 22.5H23.8816C24.289 22.4955 24.6881 22.3845 25.0392 22.1779C25.3904 21.9712 25.6813 21.6763 25.8831 21.3223C26.0848 20.9683 26.1904 20.5677 26.1893 20.1603C26.1881 19.7529 26.0803 19.3529 25.8766 19L15.9949 2.50336C15.7869 2.16048 15.4941 1.877 15.1446 1.68026C14.7952 1.48351 14.4009 1.38016 13.9999 1.38016C13.5989 1.38016 13.2046 1.48351 12.8552 1.68026C12.5057 1.877 12.2129 2.16048 12.0049 2.50336V2.50336Z" stroke="white" stroke-width="2.33333" stroke-linecap="round" stroke-linejoin="round"/>
<path d="M14 8.50003V13.1667" stroke="white" stroke-width="2.33333" stroke-linecap="round" stroke-linejoin="round"/>
<path d="M14 17.8334H14.0117" stroke="white" stroke-width="2.33333" stroke-linecap="round" stroke-linejoin="round"/>
</svg>
