<svg id="Layer_1" xmlns="http://www.w3.org/2000/svg" xmlns:xlink="http://www.w3.org/1999/xlink" viewBox="0 0 26.71 23.45">
    <defs>

        <linearGradient id="linear-gradient" x1="3.63" y1="24.87" x2="15.51" y2="5.64" gradientTransform="matrix(1, 0, 0, -1, 0, 30)" gradientUnits="userSpaceOnUse">
            <stop offset="0" stop-color="#3dabe9"/>
            <stop offset="1" stop-color="#1465dd"/>
        </linearGradient>
        <linearGradient id="linear-gradient-2" x1="13.53" y1="17.31" x2="15.15" y2="16.82" xlink:href="#linear-gradient"/>
        <linearGradient id="linear-gradient-3" x1="14.01" y1="10.17" x2="14.03" y2="10.17" xlink:href="#linear-gradient"/>
    </defs>
    <path fill = "url(#linear-gradient)" d="M4.12,25.67a3.52,3.52,0,0,1-1.75-.49A3.47,3.47,0,0,1,1.1,23.9a3.54,3.54,0,0,1-.46-1.74,3.6,3.6,0,0,1,.47-1.74L11,3.9h0a3.51,3.51,0,0,1,1.27-1.24,3.56,3.56,0,0,1,3.44,0A3.51,3.51,0,0,1,17,3.9l9.89,16.5a3.69,3.69,0,0,1,.48,1.76,3.54,3.54,0,0,1-.46,1.74,3.39,3.39,0,0,1-1.27,1.28,3.5,3.5,0,0,1-1.73.49ZM13,5.11,3.12,21.6a1.16,1.16,0,0,0-.14.56,1.14,1.14,0,0,0,.15.58,1.16,1.16,0,0,0,.42.43,1.1,1.1,0,0,0,.58.16H23.88a1.1,1.1,0,0,0,.57-.16,1.13,1.13,0,0,0,.57-1,1.19,1.19,0,0,0-.15-.58L15,5.1a1.08,1.08,0,0,0-.42-.4,1.16,1.16,0,0,0-1.14,0A1.13,1.13,0,0,0,13,5.11Z" transform="translate(-0.64 -2.22)"/>
    <path fill = "url(#linear-gradient-2)" d="M14,16.33a1.17,1.17,0,0,1-1.17-1.16V10.5a1.17,1.17,0,0,1,2.34,0v4.67A1.17,1.17,0,0,1,14,16.33Z" transform="translate(-0.64 -2.22)"/>
    <path fill = "url(#linear-gradient-3)" d="M14,21a1.17,1.17,0,1,1,0-2.33h0A1.17,1.17,0,1,1,14,21Z" transform="translate(-0.64 -2.22)"/>
</svg>