<svg fill="none" height="28" viewBox="0 0 27 28" width="27" xmlns="http://www.w3.org/2000/svg" xmlns:xlink="http://www.w3.org/1999/xlink"><linearGradient id="a" gradientUnits="userSpaceOnUse" x1="14.0788" x2="30.1202" y1="-5.31253" y2="14.9467"><stop offset="0" stop-color="#3dabe9"/><stop offset="1" stop-color="#1465dd"/></linearGradient><clipPath id="b"><path d="m.339478.974976h26.1979v26.1979h-26.1979z"/></clipPath><g clip-path="url(#b)"><path clip-rule="evenodd" d="m13.4384.974976c-1.9216 0-3.48507 1.563484-3.48507 3.485044v.55002c-3.2953 1.38422-5.61804 4.6698-5.61804 8.49296v5.1131l-2.56059 3.9832c-.17848.2773-.19106.63-.03306.9193.15801.2893.46118.4696.79106.4696h6.77161c.46886 1.829 2.13109 3.1847 4.10399 3.1847h.0601c1.973 0 3.6352-1.3557 4.104-3.1847h6.7719c.3299 0 .633-.1803.7907-.4693.1583-.2893.1457-.642-.0328-.9193l-2.5606-3.9835v-5.1131c0-3.82307-2.3228-7.10859-5.6179-8.49287v-.55011c0-1.92156-1.5637-3.485044-3.4853-3.485044zm1.6827 3.492184v-.00714c0-.92778-.755-1.68245-1.6827-1.68245-.9275 0-1.6825.75472-1.6825 1.68245v.0071c.5454-.10334 1.1079-.1574 1.6826-.1574s1.1371.05407 1.6826.15744zm.5417 19.52104h-4.4488c.393.8169 1.229 1.382 2.1943 1.382h.0601c.9654 0 1.8013-.5651 2.1944-1.382zm-9.66824-4.62-1.81104 2.8174h18.50958l-1.811-2.8174c-.0935-.1455-.1431-.3146-.1431-.4874v-5.3778c0-4.07501-3.2747-7.39063-7.3005-7.39063-4.02557 0-7.30062 3.31557-7.30062 7.39063v5.3778c0 .1728-.04989.3422-.14332.4874z" fill="url(#a)" fill-rule="evenodd"/></g></svg>