<svg width="25" height="28" viewBox="0 0 25 28" fill="none" xmlns="http://www.w3.org/2000/svg">
<path fill-rule="evenodd" clip-rule="evenodd" d="M12.4385 0.974976C10.517 0.974976 8.95351 2.53846 8.95351 4.46002V5.01004C5.65822 6.39426 3.33547 9.67984 3.33547 13.503V18.6161L0.774879 22.5993C0.596406 22.8766 0.583818 23.2293 0.741825 23.5186C0.899831 23.8079 1.203 23.9882 1.53288 23.9882H8.30443C8.77329 25.8172 10.4355 27.1729 12.4085 27.1729H12.4685C14.4415 27.1729 16.1037 25.8172 16.5726 23.9882H23.3445C23.6743 23.9882 23.9775 23.8079 24.1352 23.5189C24.2935 23.2296 24.2809 22.8769 24.1024 22.5996L21.5418 18.6161V13.503C21.5418 9.67993 19.219 6.39441 15.9239 5.01013V4.46002C15.9239 2.53846 14.3601 0.974976 12.4385 0.974976ZM14.1213 4.46716V4.46002C14.1213 3.53224 13.3663 2.77757 12.4385 2.77757C11.5111 2.77757 10.7561 3.53229 10.7561 4.46002V4.46712C11.3015 4.36378 11.8639 4.30972 12.4386 4.30972C13.0134 4.30972 13.5758 4.36379 14.1213 4.46716ZM14.6629 23.9882H10.2141C10.6072 24.8051 11.4431 25.3702 12.4085 25.3702H12.4685C13.4339 25.3702 14.2698 24.8051 14.6629 23.9882ZM4.99474 19.3682L3.18371 22.1856H21.6933L19.8822 19.3682C19.7888 19.2227 19.7392 19.0536 19.7392 18.8808V13.503C19.7392 9.42799 16.4645 6.11237 12.4386 6.11237C8.41311 6.11237 5.13806 9.42794 5.13806 13.503V18.8808C5.13806 19.0536 5.08818 19.223 4.99474 19.3682Z" fill="white"/>
</svg>
