<svg width="34" height="50" viewBox="0 0 34 50" fill="none" xmlns="http://www.w3.org/2000/svg">
<path d="M33.8787 47.0929L32.7201 37.8241C32.5966 36.8358 31.9166 36.0063 30.9717 35.6913L25.7248 33.9423C25.28 33.794 24.812 34.0287 24.6496 34.446L23.3522 34.0135C22.6481 33.7788 22.1733 33.12 22.1733 32.3779V29.5975L25.8868 28.0502C27.8142 27.2472 29.0697 25.3639 29.0697 23.2758V22.4137C30.498 22.4137 31.6559 21.2558 31.6559 19.8275C31.6559 19.1459 31.3918 18.5263 30.9609 18.0644C31.3953 15.6032 32.4715 8.6602 31.6559 4.31033C31.171 1.72413 29.9318 0 29.9318 0C29.9318 0 23.4663 0.215516 18.7249 1.72413L17.8629 0C17.8629 0 8.32627 0 5.7947 4.30957L5.79395 4.31033C5.79395 4.31033 1.48362 4.27444 1.48362 9.48272C1.48362 11.389 2.54687 16.149 3.00334 18.105C2.59461 18.5624 2.34569 19.1658 2.34569 19.8275C2.34569 21.2558 3.50355 22.4137 4.93188 22.4137V23.2758C4.93188 25.3639 6.18737 27.2472 8.11484 28.0503L11.8284 29.5976V32.3779C11.8284 33.12 11.3535 33.7788 10.6495 34.0135L9.35212 34.446C9.18962 34.0288 8.72174 33.794 8.27691 33.9423L3.02995 35.6913C2.08513 36.0063 1.40507 36.8358 1.28158 37.8241L0.122962 47.0929C-0.070033 48.6364 1.13352 49.9998 2.68911 49.9998H31.3126C32.8682 49.9998 34.0717 48.6364 33.8787 47.0929Z" fill="#F6B47B"/>
<path d="M8.8103 49.9998H25.1895V34.1017C24.8212 34.2127 24.4929 34.4453 24.2768 34.7857C22.7487 37.1935 20.0628 38.7929 16.9999 38.7929C13.937 38.7929 11.2511 37.1934 9.72301 34.7856C9.50696 34.4452 9.17862 34.2126 8.8103 34.1016V49.9998Z" fill="#9BCE7A"/>
<path d="M11.8275 29.5257V32.3779C11.8275 32.9914 11.5024 33.5473 10.9922 33.8543C17.8621 35.0413 21.7888 29.9964 22.1456 29.5256H11.8275V29.5257Z" fill="#E2A071"/>
<path d="M3.20685 18.9654L29.9309 0C29.9309 0 31.1701 1.72413 31.655 4.31033C32.6598 9.66968 30.7929 18.9654 30.7929 18.9654H3.20685Z" fill="#6E4439"/>
<path d="M17.862 0C17.862 0 8.32537 0 5.79381 4.30957L5.79305 4.31033C5.79305 4.31033 1.48273 4.27444 1.48273 9.48272C1.48273 11.9101 3.20686 18.9654 3.20686 18.9654C3.20686 18.9654 21.5618 10.8117 29.9309 0C29.9309 0 23.4654 0.215516 18.724 1.72413L17.862 0Z" fill="#5E342E"/>
<path d="M29.0688 17.2413V15.5172C29.0688 13.1366 27.139 11.2068 24.7585 11.2068H9.24131C6.86082 11.2068 4.93098 13.1367 4.93098 15.5172V17.2413C3.50265 17.2413 2.34479 18.3992 2.34479 19.8275C2.34479 21.2558 3.50265 22.4137 4.93098 22.4137V23.2758C4.93098 25.3639 6.18647 27.2472 8.11394 28.0503L13.6841 30.3712C14.7347 30.809 15.8616 31.0343 16.9998 31.0343C18.1379 31.0343 19.2648 30.809 20.3154 30.3712L25.8858 28.0502C27.8133 27.2472 29.0688 25.3639 29.0688 23.2758V22.4137C30.4971 22.4137 31.655 21.2558 31.655 19.8275C31.655 18.3992 30.4971 17.2413 29.0688 17.2413Z" fill="#FDC88E"/>
<path d="M10.9655 20.6896C10.4913 20.6896 10.1034 20.3016 10.1034 19.8275V18.9654C10.1034 18.4913 10.4913 18.1034 10.9655 18.1034C11.4396 18.1034 11.8275 18.4913 11.8275 18.9654V19.8275C11.8275 20.3016 11.4396 20.6896 10.9655 20.6896Z" fill="#623F33"/>
<path d="M23.0344 20.6896C22.5602 20.6896 22.1723 20.3016 22.1723 19.8275V18.9654C22.1723 18.4913 22.5602 18.1034 23.0344 18.1034C23.5085 18.1034 23.8964 18.4913 23.8964 18.9654V19.8275C23.8964 20.3016 23.5085 20.6896 23.0344 20.6896Z" fill="#623F33"/>
<path d="M16.9999 26.7476C15.4673 26.7476 14.0337 26.3705 13.0667 25.7126C12.6732 25.4449 12.5708 24.9086 12.839 24.5151C13.1063 24.122 13.643 24.0196 14.0366 24.2874C14.7143 24.7483 15.8221 25.0236 16.9999 25.0236C18.1777 25.0236 19.2856 24.7483 19.9633 24.2874C20.3577 24.0189 20.8931 24.1216 21.1608 24.5151C21.4289 24.9086 21.3266 25.4449 20.9331 25.7126C19.9664 26.3705 18.5326 26.7476 16.9999 26.7476Z" fill="#E2A071"/>
<path d="M24.7585 13.793V11.2068H9.24131C8.94519 11.2068 8.65726 11.2382 8.37924 11.2967V11.2938C6.4119 11.6933 4.93098 13.4321 4.93098 15.5173V17.2414C3.50265 17.2414 2.34479 18.3993 2.34479 19.8276C2.34479 21.2559 3.50265 22.4138 4.93098 22.4138V23.2759C4.93098 25.364 6.18647 27.2473 8.11394 28.0504L13.684 30.3713C13.9566 30.4849 14.2348 30.5827 14.5166 30.6675C12.055 28.8668 10.4164 27.2926 9.45628 26.2632C8.7578 25.5143 8.37924 24.5261 8.37924 23.5019V14.5716C11.0958 13.3158 16.8851 11.5073 24.7585 13.793Z" fill="#F6B47B"/>
<path d="M26.2479 34.117C25.5152 33.8727 24.6908 34.1336 24.2769 34.7857C22.7487 37.1935 20.0628 38.7929 16.9999 38.7929C13.937 38.7929 11.2511 37.1934 9.72299 34.7856C9.30909 34.1335 8.48474 33.8726 7.75199 34.1169L7.47333 34.2098C9.04638 37.9168 12.7193 40.517 16.9999 40.517C21.2805 40.517 24.9535 37.9167 26.5265 34.2099L26.2479 34.117Z" fill="#8ABE69"/>
<path d="M11.8275 49.9999L9.40007 34.6258C9.31699 34.0996 8.78132 33.774 8.27594 33.9424L3.02898 35.6914C2.08415 36.0064 1.40409 36.8359 1.2806 37.8242L0.121984 47.093C-0.0710111 48.6365 1.13265 50 2.68824 50L11.8275 49.9999Z" fill="#43A0C5"/>
<path d="M22.1723 49.9999L24.5998 34.6258C24.6829 34.0996 25.2185 33.774 25.7239 33.9424L30.9709 35.6914C31.9157 36.0064 32.5958 36.8359 32.7192 37.8242L33.8779 47.093C34.0709 48.6365 32.8672 50 31.3116 50L22.1723 49.9999Z" fill="#43A0C5"/>
<path d="M32.1992 36.5701C32.475 36.9285 32.6609 37.3573 32.7193 37.824L33.8779 47.0928C34.0709 48.6364 32.8673 49.9998 31.3117 49.9998H26.4826V45.0467C26.4826 43.7938 26.9373 42.5835 27.7623 41.6407L32.1992 36.5701Z" fill="#2C8CB3"/>
<path d="M33.8049 46.5076C32.1088 46.291 30.793 44.8582 30.793 43.1033C30.793 41.6455 31.7005 40.4058 32.979 39.9012L33.8049 46.5076Z" fill="#FFC84A"/>
<path d="M18.5071 10.9913C21.1444 11.4628 24.0658 12.7718 25.6206 15.5172C25.6206 15.5172 25.8777 13.0012 25.2643 10.9913H18.5071Z" fill="#6E4439"/>
<path d="M1.80075 36.5701C1.52489 36.9285 1.339 37.3573 1.2806 37.824L0.121984 47.0928C-0.0710111 48.6364 1.13265 49.9998 2.68824 49.9998H7.51721V45.0467C7.51721 43.7938 7.06247 42.5835 6.23747 41.6407L1.80075 36.5701Z" fill="#2C8CB3"/>
</svg>
