<svg fill="none" height="28" viewBox="0 0 28 28" width="28" xmlns="http://www.w3.org/2000/svg" xmlns:xlink="http://www.w3.org/1999/xlink"><linearGradient id="a" gradientUnits="userSpaceOnUse" x1="14.7396" x2="30.9645" y1="-6.18181" y2="16.5514"><stop offset="0" stop-color="#3dabe9"/><stop offset="1" stop-color="#1465dd"/></linearGradient><clipPath id="b"><path d="m.363647.363647h27.2727v27.2727h-27.2727z"/></clipPath><g clip-path="url(#b)"><path d="m4.35868 8.40697h19.28262c.212 0 .4152-.08416.565-.234l3.196-3.19602c.3102-.31023.3123-.81254.0047-1.12527l-3.196-3.24929c-.1502-.152716-.3555-.238743-.5697-.238743h-19.28262c-1.06737 0-2.07289.427309-2.83131 1.203253-.750424.76768-1.163723 1.7781-1.163723 2.84504 0 2.20286 1.792173 3.99503 3.995033 3.99503zm18.94782-6.44531 2.4055 2.44565-2.4016 2.40165h-15.75788c.50273-.66818.80118-1.49835.80118-2.39702 0-.89297-.29046-1.74566-.82473-2.45028zm-18.94782 0c1.29934 0 2.39701 1.12207 2.39701 2.45028 0 1.32172-1.0753 2.39702-2.39701 2.39702-1.32172 0-2.39702-1.0753-2.39702-2.39702 0-1.32816 1.09767-2.45028 2.39702-2.45028zm19.84762 8.27734c-.1498-.1498-.353-.234-.565-.234h-19.28262c-2.20286 0-3.995033 1.7922-3.995033 3.995 0 2.2029 1.792173 3.995 3.995033 3.995h19.28262c.212 0 .4152-.0841.565-.234l3.196-3.196c.3121-.312.3121-.8179 0-1.1299zm-19.84762 6.158c-1.32172 0-2.39702-1.0753-2.39702-2.397s1.0753-2.397 2.39702-2.397c1.32171 0 2.39701 1.0753 2.39701 2.397s-1.0753 2.397-2.39701 2.397zm18.95172 0h-15.75788c.50273-.6682.80118-1.4983.80118-2.397s-.29845-1.7288-.80118-2.397h15.75788l2.397 2.397zm.8959 3.4301c-.1498-.1498-.353-.234-.565-.234h-19.28262c-2.20286 0-3.995033 1.7921-3.995033 3.995 0 1.067.413299 2.0773 1.163723 2.8451.75842.7759 1.76394 1.2032 2.83131 1.2032h19.28262c.2142 0 .4195-.086.5697-.2387l3.196-3.2493c.3076-.3128.3055-.8151-.0047-1.1253zm-19.84762 6.2113c-1.29935 0-2.39702-1.1221-2.39702-2.4503 0-1.3217 1.0753-2.397 2.39702-2.397 1.32171 0 2.39701 1.0753 2.39701 2.397 0 1.3282-1.09767 2.4503-2.39701 2.4503zm18.94782 0h-15.77753c.53427-.7047.82473-1.5574.82473-2.4503 0-.8987-.29845-1.7289-.80118-2.397h15.75788l2.4016 2.4016zm-6.1105-3.2493h-3.196c-.4413 0-.799.3577-.799.799 0 .4412.3577.799.799.799h3.196c.4413 0 .799-.3578.799-.799 0-.4413-.3577-.799-.799-.799zm0-9.5881h-3.196c-.4413 0-.799.3577-.799.799s.3577.799.799.799h3.196c.4413 0 .799-.3577.799-.799s-.3577-.799-.799-.799zm-3.196-7.99005h3.196c.4413 0 .799-.35774.799-.79901 0-.44126-.3577-.799-.799-.799h-3.196c-.4413 0-.799.35774-.799.799 0 .44127.3577.79901.799.79901z" fill="url(#a)"/></g></svg>