<svg width="18" height="17" viewBox="0 0 18 17" fill="none" xmlns="http://www.w3.org/2000/svg">
<path d="M6.33203 6.66511C6.33203 6.4883 6.40227 6.31873 6.52729 6.19371C6.65232 6.06868 6.82189 5.99845 6.9987 5.99845H10.9987C11.1755 5.99845 11.3451 6.06868 11.4701 6.19371C11.5951 6.31873 11.6654 6.4883 11.6654 6.66511C11.6654 6.84192 11.5951 7.01149 11.4701 7.13652C11.3451 7.26154 11.1755 7.33178 10.9987 7.33178H6.9987C6.82189 7.33178 6.65232 7.26154 6.52729 7.13652C6.40227 7.01149 6.33203 6.84192 6.33203 6.66511Z" fill="white"/>
<path d="M6.99955 8.66653C6.82274 8.66653 6.65317 8.73677 6.52815 8.86179C6.40312 8.98682 6.33289 9.15639 6.33289 9.3332C6.33289 9.51001 6.40312 9.67958 6.52815 9.8046C6.65317 9.92963 6.82274 9.99986 6.99955 9.99986H9.66622C9.84303 9.99986 10.0126 9.92963 10.1376 9.8046C10.2626 9.67958 10.3329 9.51001 10.3329 9.3332C10.3329 9.15639 10.2626 8.98682 10.1376 8.86179C10.0126 8.73677 9.84303 8.66653 9.66622 8.66653H6.99955Z" fill="white"/>
<path d="M0.998629 7.99977C0.99897 6.23821 1.58063 4.526 2.65337 3.12874C3.72611 1.73149 5.22997 0.727294 6.93166 0.271943C8.63335 -0.183408 10.4377 -0.0644653 12.0649 0.610321C13.6921 1.28511 15.0512 2.47802 15.9312 4.004C16.8113 5.52998 17.1631 7.30372 16.9322 9.05009C16.7013 10.7964 15.9006 12.4178 14.6542 13.6626C13.4078 14.9075 11.7854 15.7062 10.0388 15.9349C8.29214 16.1636 6.51883 15.8095 4.99395 14.9276L1.87611 15.9677C1.76092 16.0062 1.63741 16.0125 1.51892 15.9859C1.40043 15.9593 1.29145 15.9008 1.20375 15.8168C1.11604 15.7328 1.05294 15.6265 1.02126 15.5092C0.989578 15.392 0.990514 15.2683 1.02397 15.1516L1.97346 11.8297C1.33204 10.6552 0.996785 9.33803 0.998629 7.99977ZM8.99994 1.33201C7.82266 1.33194 6.66634 1.64357 5.64853 2.23523C4.63072 2.82689 3.78771 3.67749 3.20519 4.70056C2.62267 5.72363 2.32141 6.88269 2.33203 8.05993C2.34266 9.23717 2.66478 10.3906 3.26567 11.403C3.3119 11.4812 3.34166 11.568 3.35313 11.6582C3.36459 11.7483 3.35752 11.8398 3.33235 11.9271L2.65357 14.3008L4.8646 13.5647C4.9585 13.5333 5.0582 13.5233 5.15646 13.5353C5.25472 13.5473 5.34908 13.581 5.43269 13.634C6.30653 14.187 7.29702 14.5292 8.32587 14.6335C9.35472 14.7378 10.3937 14.6014 11.3608 14.235C12.3278 13.8686 13.1964 13.2823 13.8978 12.5224C14.5993 11.7626 15.1143 10.85 15.4023 9.85674C15.6903 8.86353 15.7434 7.81694 15.5573 6.7997C15.3711 5.78246 14.951 4.82246 14.3299 3.99557C13.7089 3.16868 12.9041 2.49758 11.979 2.0353C11.054 1.57303 10.0341 1.33225 8.99994 1.33201Z" fill="white"/>
</svg>
