<svg width="64" height="64" viewBox="0 0 64 64" fill="none" xmlns="http://www.w3.org/2000/svg">
    <defs>
        <linearGradient id="paint0_linear" x1="32.2861" y1="-6.77623" x2="54.6217" y2="36.959" gradientUnits="userSpaceOnUse">
            <stop stop-color="#3DABE9"/>
            <stop offset="1" stop-color="#1465DD"/>
        </linearGradient>
        <linearGradient id="paint1_linear" x1="53.3413" y1="18.4523" x2="54.7003" y2="25.6737" gradientUnits="userSpaceOnUse">
            <stop stop-color="#3DABE9"/>
            <stop offset="1" stop-color="#1465DD"/>
        </linearGradient>
        <linearGradient id="paint2_linear" x1="53.3416" y1="49.9284" x2="55.926" y2="59.727" gradientUnits="userSpaceOnUse">
            <stop stop-color="#3DABE9"/>
            <stop offset="1" stop-color="#1465DD"/>
        </linearGradient>
        <clipPath id="clip0">
            <rect width="64" height="64" fill="white"/>
        </clipPath>
    </defs>
<g clip-path="url(#clip0)">
<path d="M24.8893 47.4077V51.1785C24.8893 52.6205 24.1983 53.9595 23.0634 54.7165L20.3221 56.5451H40.9281L38.1869 54.7165C37.052 53.9595 36.361 52.6205 36.361 51.1785V47.4077C32.5888 47.4077 28.6614 47.4077 24.8893 47.4077Z" fill="#BED8FB"/>
<path d="M24.8893 47.4077V51.1785C24.8893 52.6205 24.1983 53.9595 23.0634 54.7165L20.3221 56.5451H26.9731L27.031 56.5065C28.1659 55.7495 28.8569 54.4105 28.8569 52.9685V50.358C28.8569 49.7172 29.3764 49.1977 30.0171 49.1977H36.361V47.4077H24.8893Z" fill="#9DC6FB"/>
<path d="M42.8464 56.413H18.4038C17.7231 56.413 17.1714 56.9647 17.1714 57.6454V59.0252C17.1714 59.7059 17.7231 60.2576 18.4038 60.2576H42.8464C43.527 60.2576 44.0786 59.7059 44.0786 59.0252V57.6454C44.0788 56.9646 43.527 56.413 42.8464 56.413Z" fill="#DFEBFA"/>
<path d="M24.0013 59.0251V57.6452C24.0013 56.9646 24.553 56.4129 25.2336 56.4129H18.4038C17.7231 56.4129 17.1714 56.9646 17.1714 57.6452V59.0251C17.1714 59.7057 17.7231 60.2575 18.4038 60.2575H25.2335C24.5529 60.2575 24.0013 59.7057 24.0013 59.0251Z" fill="#BED8FB"/>
<path d="M57.6985 3.74249H3.55175C1.59325 3.74249 0 5.33574 0 7.29424V44.0187C0 45.9772 1.59325 47.5705 3.55175 47.5705H57.6985C59.657 47.5705 61.2503 45.9772 61.2503 44.0187V7.29424C61.2501 5.33574 59.6569 3.74249 57.6985 3.74249Z" fill="url(#paint0_linear)"/>
<path opacity="0.2" d="M4.10825 44.0187V7.29424C4.10825 5.33574 5.7015 3.74249 7.65988 3.74249H3.55175C1.59325 3.74249 0 5.33574 0 7.29424V44.0187C0 45.9772 1.59325 47.5705 3.55175 47.5705H7.66C5.7015 47.5705 4.10825 45.9772 4.10825 44.0187Z" fill="black"/>
<path d="M3.84448 11.9112V12.1577V43.2147C3.84448 43.497 4.07323 43.7257 4.35548 43.7257H56.8945C57.1767 43.7257 57.4055 43.497 57.4055 43.2147C57.4055 42.3868 57.4055 20.9346 57.4055 11.9112H3.84448Z" fill="#DFEBFA"/>
<path d="M7.54199 43.2148V12.1577V11.9112H3.84448V12.1577V43.2147C3.84448 43.497 4.07323 43.7257 4.35548 43.7257H8.05286C7.77074 43.7258 7.54199 43.4971 7.54199 43.2148Z" fill="#BED8FB"/>
<path d="M56.8946 7.58698H9.27136V12.1577H57.4056C57.4056 10.0185 57.4056 8.52822 57.4056 8.09797C57.4056 7.81572 57.1769 7.58698 56.8946 7.58698Z" fill="#80B4FB"/>
<path d="M9.39461 7.58698H4.3556C4.07335 7.58698 3.8446 7.81572 3.8446 8.09797V12.1577H9.39461V7.58698Z" fill="#FF656F"/>
<path d="M8.05285 7.58698H4.3556C4.07335 7.58698 3.8446 7.81572 3.8446 8.09797V12.1577H7.54185V8.09797C7.54185 7.81585 7.7706 7.58698 8.05285 7.58698Z" fill="#FF4756"/>
<path d="M64 25.8216V22.6484C64 21.1188 62.7598 19.8786 61.2301 19.8786H44.2301C42.7003 19.8786 41.4602 21.1188 41.4602 22.6484V25.8216H64Z" fill="url(#paint1_linear)"/>
<path opacity="0.2" d="M48.3137 19.8786H44.2303C42.7006 19.8786 41.4604 21.1188 41.4604 22.6484V25.8216H45.5438V22.6484C45.5438 21.1188 46.7839 19.8786 48.3137 19.8786Z" fill="black"/>
<path d="M41.4604 51.9276V57.4876C41.4604 59.0174 42.7006 60.2575 44.2303 60.2575H61.2303C62.7601 60.2575 64.0002 59.0174 64.0002 57.4876V51.9276H41.4604Z" fill="url(#paint2_linear)"/>
<path opacity="0.2" d="M45.5438 57.4876V51.9276H41.4604V57.4876C41.4604 59.0174 42.7006 60.2575 44.2303 60.2575H48.3137C46.7839 60.2575 45.5438 59.0174 45.5438 57.4876Z" fill="black"/>
<path d="M41.4604 29.4444H64.0001V52.122H41.4604V29.4444Z" fill="white"/>
<path opacity="0.2" d="M41.4604 29.4444H45.5438V52.122H41.4604V29.4444Z" fill="black"/>
<path opacity="0.5" d="M52.7301 57.7884C53.6583 57.7884 54.4107 57.0359 54.4107 56.1077C54.4107 55.1796 53.6583 54.4271 52.7301 54.4271C51.8019 54.4271 51.0494 55.1796 51.0494 56.1077C51.0494 57.0359 51.8019 57.7884 52.7301 57.7884Z" fill="black"/>
<path d="M45.5438 25.6273H64.0001V29.7021H45.5438V25.6273Z" fill="#80B4FB"/>
<path d="M41.4604 25.6273H45.5438V29.7021H41.4604V25.6273Z" fill="#FF4756"/>
<path d="M34.3642 24.5951H20.0649C19.5315 24.5951 19.0991 24.1627 19.0991 23.6294C19.0991 23.096 19.5315 22.6636 20.0649 22.6636H34.3642C34.8976 22.6636 35.33 23.096 35.33 23.6294C35.33 24.1627 34.8976 24.5951 34.3642 24.5951Z" fill="#9DC6FB"/>
<path d="M37.2257 33.22H23.5474C23.014 33.22 22.5817 32.7876 22.5817 32.2543C22.5817 31.7209 23.014 31.2885 23.5474 31.2885H37.2257C37.7591 31.2885 38.1914 31.7209 38.1914 32.2543C38.1914 32.7876 37.7591 33.22 37.2257 33.22Z" fill="#9DC6FB"/>
<path d="M37.1678 23.2875L33.3752 20.8831C33.1057 20.7122 32.7535 20.9058 32.7535 21.225V26.0338C32.7535 26.353 33.1055 26.5466 33.3752 26.3757L37.1678 23.9713C37.4186 23.8123 37.4186 23.4465 37.1678 23.2875Z" fill="#9DC6FB"/>
<path d="M20.1228 31.9124L23.9154 29.508C24.1849 29.3371 24.537 29.5308 24.537 29.8499V34.6588C24.537 34.9779 24.185 35.1715 23.9154 35.0006L20.1228 32.5963C19.872 32.4371 19.872 32.0714 20.1228 31.9124Z" fill="#9DC6FB"/>
<path d="M37.168 23.2875L35.8819 22.4721L33.3754 24.0611C33.1059 24.232 32.7538 24.0384 32.7538 23.7193V26.0338C32.7538 26.3529 33.1058 26.5465 33.3754 26.3756L37.168 23.9713C37.4188 23.8124 37.4188 23.4465 37.168 23.2875Z" fill="#80B4FB"/>
<path d="M23.9154 32.686L21.4089 31.097L20.1228 31.9124C19.872 32.0714 19.872 32.4373 20.1228 32.5963L23.9154 35.0006C24.1849 35.1715 24.537 34.9779 24.537 34.6588V32.3443C24.537 32.6633 24.1849 32.857 23.9154 32.686Z" fill="#80B4FB"/>
</g>
</svg>
