<svg width="36" height="36" viewBox="0 0 36 36" fill="none" xmlns="http://www.w3.org/2000/svg">
<defs>
<linearGradient id="paint0_linear" x1="18.9661" y1="-8.3625" x2="40.1599" y2="21.3327" gradientUnits="userSpaceOnUse">
<stop stop-color="#3DABE9"/>
<stop offset="1" stop-color="#1465DD"/>
</linearGradient>
</defs>
<path d="M33.5859 0.1875H2.41406C1.30078 0.1875 0.1875 1.30078 0.1875 2.41406V27.4632C0.1875 28.5765 1.30078 29.6898 2.41406 29.6898H13.5469V31.9163C13.5469 33.4624 11.5412 34.1429 9.09375 34.1429V35.8125H26.9062V34.1423C24.4582 34.1423 22.4531 33.4618 22.4531 31.9157V29.6892H33.5859C34.6992 29.6892 35.8125 28.5759 35.8125 27.4626V2.41406C35.8125 1.30078 34.6992 0.1875 33.5859 0.1875ZM34.625 27.4632C34.625 27.9198 34.0419 28.5023 33.5859 28.5023H2.41406C1.95747 28.5023 1.375 27.9198 1.375 27.4632V25.2366H34.625V27.4632Z" fill="url(#paint0_linear)"/>
</svg>
