<svg width="28" height="24" viewBox="0 0 28 24" fill="none" xmlns="http://www.w3.org/2000/svg">
    <defs>
        <linearGradient id="paint0_linear" x1="14.7593" y1="-5.26667" x2="27.6571" y2="16.419" gradientUnits="userSpaceOnUse">
            <stop offset="0" stop-color="#3DABE9"/>
            <stop offset="1" stop-color="#1465DD"/>
        </linearGradient>
    </defs>
<path d="M26.8333 10.845L21 10.8333C20.3583 10.8333 19.8333 11.3583 19.8333 12V22.5C19.8333 23.1417 20.3583 23.6667 21 23.6667H26.8333C27.475 23.6667 28 23.1417 28 22.5V12C28 11.3583 27.475 10.845 26.8333 10.845ZM26.8333 21.3333H21V13.1667H26.8333V21.3333ZM23.3333 0.333328H2.33333C1.03833 0.333328 0 1.37166 0 2.66666V16.6667C0 17.2855 0.245833 17.879 0.683417 18.3166C1.121 18.7542 1.71449 19 2.33333 19H10.5V21.3333H8.16667V23.6667H17.5V21.3333H15.1667V19H17.5V16.6667H2.33333V2.66666H23.3333V8.5H25.6667V2.66666C25.6667 2.04782 25.4208 1.45433 24.9832 1.01675C24.5457 0.579161 23.9522 0.333328 23.3333 0.333328Z" fill="url(#paint0_linear)"/>
</svg>
