<svg width="38" height="28" viewBox="0 0 38 28" fill="none" xmlns="http://www.w3.org/2000/svg">
<defs>
<linearGradient id="paint0_linear" x1="20.0183" y1="-6.35106" x2="34.2367" y2="20.8097" gradientUnits="userSpaceOnUse">
<stop stop-color="#3DABE9"/>
<stop offset="1" stop-color="#1465DD"/>
</linearGradient>
</defs>
<path d="M36.7443 13.1703C35.0873 5.6789 32.5935 1.68046 28.8943 0.588272C28.1167 0.360185 27.3101 0.246235 26.4998 0.249991C25.4287 0.249991 24.4959 0.510928 23.5091 0.78749C22.3201 1.12108 20.9693 1.49999 18.9998 1.49999C17.0302 1.49999 15.6787 1.12187 14.4873 0.788272C13.4998 0.510928 12.5677 0.249991 11.4998 0.249991C10.6618 0.247085 9.82752 0.360672 9.02085 0.587491C5.34116 1.67499 2.84897 5.67187 1.16772 13.1656C-0.64009 21.2297 0.249754 26.3211 3.66303 27.5023C4.13091 27.6673 4.6232 27.7523 5.11929 27.7539C7.45757 27.7539 9.33257 25.8062 10.6138 24.2117C12.0615 22.407 13.756 21.4914 18.9998 21.4914C23.6833 21.4914 25.6216 22.1266 27.2959 24.2117C28.3482 25.5226 29.3427 26.4398 30.3349 27.0172C31.6544 27.7844 32.9732 27.9547 34.2537 27.5148C36.2709 26.8266 37.4271 25.007 37.6912 22.1055C37.8919 19.8805 37.5826 16.9578 36.7443 13.1703ZM15.2498 12.75H12.7498V15.25C12.7498 15.5815 12.6181 15.8995 12.3836 16.1339C12.1492 16.3683 11.8313 16.5 11.4998 16.5C11.1682 16.5 10.8503 16.3683 10.6159 16.1339C10.3815 15.8995 10.2498 15.5815 10.2498 15.25V12.75H7.74975C7.41823 12.75 7.10029 12.6183 6.86587 12.3839C6.63145 12.1495 6.49975 11.8315 6.49975 11.5C6.49975 11.1685 6.63145 10.8505 6.86587 10.6161C7.10029 10.3817 7.41823 10.25 7.74975 10.25H10.2498V7.74999C10.2498 7.41847 10.3815 7.10053 10.6159 6.86611C10.8503 6.63169 11.1682 6.49999 11.4998 6.49999C11.8313 6.49999 12.1492 6.63169 12.3836 6.86611C12.6181 7.10053 12.7498 7.41847 12.7498 7.74999V10.25H15.2498C15.5813 10.25 15.8992 10.3817 16.1336 10.6161C16.3681 10.8505 16.4998 11.1685 16.4998 11.5C16.4998 11.8315 16.3681 12.1495 16.1336 12.3839C15.8992 12.6183 15.5813 12.75 15.2498 12.75ZM21.8123 13.0625C21.5032 13.0625 21.2011 12.9709 20.9442 12.7992C20.6872 12.6275 20.487 12.3834 20.3687 12.0979C20.2504 11.8124 20.2195 11.4983 20.2798 11.1952C20.3401 10.8921 20.4889 10.6137 20.7074 10.3951C20.9259 10.1766 21.2043 10.0278 21.5074 9.96751C21.8105 9.90722 22.1247 9.93817 22.4102 10.0564C22.6957 10.1747 22.9397 10.375 23.1114 10.6319C23.2831 10.8889 23.3748 11.191 23.3748 11.5C23.3748 11.9144 23.2101 12.3118 22.9171 12.6048C22.6241 12.8979 22.2267 13.0625 21.8123 13.0625ZM25.2498 16.5C24.9406 16.5 24.6383 16.4083 24.3813 16.2364C24.1242 16.0645 23.924 15.8203 23.8058 15.5345C23.6877 15.2488 23.657 14.9344 23.7176 14.6312C23.7782 14.328 23.9274 14.0496 24.1463 13.8313C24.3652 13.6129 24.644 13.4644 24.9473 13.4045C25.2507 13.3447 25.565 13.3762 25.8504 13.4951C26.1359 13.6139 26.3796 13.8148 26.5508 14.0723C26.722 14.3297 26.813 14.6322 26.8123 14.9414C26.8112 15.3551 26.6461 15.7515 26.3532 16.0437C26.0603 16.3359 25.6635 16.5 25.2498 16.5ZM25.2498 9.62499C24.9407 9.62499 24.6386 9.53335 24.3817 9.36166C24.1247 9.18997 23.9245 8.94594 23.8062 8.66043C23.6879 8.37492 23.657 8.06076 23.7173 7.75766C23.7776 7.45457 23.9264 7.17616 24.1449 6.95764C24.3634 6.73912 24.6418 6.5903 24.9449 6.53001C25.248 6.46972 25.5622 6.50067 25.8477 6.61893C26.1332 6.73719 26.3772 6.93746 26.5489 7.19441C26.7206 7.45136 26.8123 7.75346 26.8123 8.06249C26.8123 8.47689 26.6476 8.87432 26.3546 9.16735C26.0616 9.46037 25.6642 9.62499 25.2498 9.62499ZM28.6873 13.0625C28.3782 13.0625 28.0761 12.9709 27.8192 12.7992C27.5622 12.6275 27.362 12.3834 27.2437 12.0979C27.1254 11.8124 27.0945 11.4983 27.1548 11.1952C27.2151 10.8921 27.3639 10.6137 27.5824 10.3951C27.8009 10.1766 28.0793 10.0278 28.3824 9.96751C28.6855 9.90722 28.9997 9.93817 29.2852 10.0564C29.5707 10.1747 29.8147 10.375 29.9864 10.6319C30.1581 10.8889 30.2498 11.191 30.2498 11.5C30.2498 11.9144 30.0851 12.3118 29.7921 12.6048C29.4991 12.8979 29.1017 13.0625 28.6873 13.0625Z" fill="url(#paint0_linear)"/>
</svg>
