<svg width="32" height="32" viewBox="0 0 32 32" fill="none" xmlns="http://www.w3.org/2000/svg">
<path d="M7.51001 26C7.02371 26.0008 6.53945 25.9369 6.07001 25.81C4.66091 25.4081 3.46544 24.47 2.74008 23.1969C2.01471 21.9238 1.81723 20.417 2.19001 19L4.52001 10.16C4.70147 9.44455 5.02406 8.77259 5.46883 8.18357C5.9136 7.59456 6.47158 7.10035 7.11001 6.72998C7.73164 6.36993 8.41853 6.1368 9.1309 6.04411C9.84326 5.95142 10.5669 6.001 11.26 6.18998C11.9968 6.39457 12.683 6.74998 13.2751 7.2337C13.8673 7.71742 14.3525 8.31889 14.7 8.99998H17.3C17.646 8.3178 18.1307 7.71545 18.7231 7.23154C19.3155 6.74764 20.0025 6.39287 20.74 6.18998C21.4331 6.001 22.1568 5.95142 22.8691 6.04411C23.5815 6.1368 24.2684 6.36993 24.89 6.72998C25.5253 7.0994 26.0813 7.5909 26.5258 8.17615C26.9703 8.7614 27.2946 9.42883 27.48 10.14L29.81 19C30.1884 20.4212 29.9925 21.9342 29.2646 23.2121C28.5367 24.4901 27.3354 25.4304 25.92 25.83C25.2269 26.019 24.5033 26.0685 23.7909 25.9758C23.0785 25.8832 22.3916 25.65 21.77 25.29C21.1336 24.9219 20.5769 24.4308 20.1322 23.8453C19.6876 23.2599 19.3639 22.5918 19.18 21.88L19 21H13L12.77 21.86C12.5862 22.5718 12.2625 23.2399 11.8178 23.8253C11.3731 24.4108 10.8164 24.9019 10.18 25.27C9.36749 25.7386 8.44794 25.99 7.51001 26ZM9.83001 7.99998C9.22655 8.00203 8.63393 8.16052 8.11001 8.45998C7.28886 8.94176 6.69199 9.7292 6.45001 10.65L4.12001 19.49C3.8762 20.4007 3.99939 21.3708 4.46313 22.1916C4.92686 23.0125 5.69412 23.6187 6.60001 23.88C7.03751 23.9993 7.49434 24.0307 7.94406 23.9724C8.39378 23.914 8.82746 23.767 9.22001 23.54C9.62871 23.304 9.98611 22.9887 10.2712 22.6126C10.5563 22.2365 10.7633 21.8072 10.88 21.35L11.5 19H20.5L21.11 21.35C21.2288 21.8064 21.4366 22.2348 21.7215 22.6106C22.0064 22.9864 22.3627 23.3023 22.77 23.54C23.1645 23.7668 23.5998 23.9136 24.0511 23.9719C24.5024 24.0303 24.9608 23.999 25.4 23.88C26.307 23.6212 27.0752 23.0149 27.5377 22.1929C28.0002 21.3709 28.1196 20.3995 27.87 19.49L25.54 10.65C25.4239 10.1938 25.2183 9.76522 24.935 9.38924C24.6517 9.01327 24.2965 8.69739 23.89 8.45998C23.4955 8.23315 23.0602 8.08635 22.6089 8.02801C22.1576 7.96967 21.6992 8.00092 21.26 8.11998C20.7169 8.27481 20.2185 8.55699 19.8063 8.9431C19.3941 9.32921 19.08 9.8081 18.89 10.34L18.65 11H13.35L13.11 10.34C12.9184 9.80738 12.6025 9.32816 12.1886 8.94208C11.7746 8.55599 11.2746 8.27416 10.73 8.11998C10.4365 8.04085 10.134 8.0005 9.83001 7.99998Z" fill="#416F8B"/>
<path d="M10 16C9.60444 16 9.21776 15.8827 8.88886 15.6629C8.55996 15.4432 8.30362 15.1308 8.15224 14.7654C8.00087 14.3999 7.96126 13.9978 8.03843 13.6098C8.1156 13.2219 8.30608 12.8655 8.58579 12.5858C8.86549 12.3061 9.22186 12.1156 9.60982 12.0384C9.99778 11.9613 10.3999 12.0009 10.7654 12.1522C11.1308 12.3036 11.4432 12.56 11.6629 12.8889C11.8827 13.2178 12 13.6044 12 14C12 14.5304 11.7893 15.0391 11.4142 15.4142C11.0391 15.7893 10.5304 16 10 16Z" fill="#416F8B"/>
<path d="M22 13C22.5523 13 23 12.5523 23 12C23 11.4477 22.5523 11 22 11C21.4477 11 21 11.4477 21 12C21 12.5523 21.4477 13 22 13Z" fill="#416F8B"/>
<path d="M22 17C22.5523 17 23 16.5523 23 16C23 15.4477 22.5523 15 22 15C21.4477 15 21 15.4477 21 16C21 16.5523 21.4477 17 22 17Z" fill="#416F8B"/>
<path d="M20 15C20.5523 15 21 14.5523 21 14C21 13.4477 20.5523 13 20 13C19.4477 13 19 13.4477 19 14C19 14.5523 19.4477 15 20 15Z" fill="#416F8B"/>
<path d="M24 15C24.5523 15 25 14.5523 25 14C25 13.4477 24.5523 13 24 13C23.4477 13 23 13.4477 23 14C23 14.5523 23.4477 15 24 15Z" fill="#416F8B"/>
</svg>
