<svg width="38" height="50" viewBox="0 0 38 50" fill="none" xmlns="http://www.w3.org/2000/svg">
<path d="M32.7931 7.75859C30.0991 2.0474 25.0345 0 19 0C12.9656 0 7.90095 2.0474 5.20699 7.75859C2.51304 13.4698 4.12941 17.1335 0.896667 25.862C0.896667 25.862 6.71561 31.8964 19 31.8964C31.2845 31.8964 37.1034 25.862 37.1034 25.862C33.8707 17.1335 35.487 13.4698 32.7931 7.75859Z" fill="#6E4439"/>
<path d="M34.989 47.0719L33.9989 39.6465C33.9989 39.6464 33.9989 39.6463 33.9988 39.6461L33.9571 39.3329C33.8723 38.6965 33.6472 38.0981 33.295 37.566C33.3849 37.2078 33.2364 36.8176 32.9025 36.6172L30.0708 34.9182C29.7724 34.7392 29.4088 34.7619 29.1389 34.9474L27.3891 34.1763C27.0349 34.0202 26.6365 34.1235 26.398 34.3987L25.3514 34.0136C24.6474 33.7789 24.1725 33.1201 24.1725 32.378V29.5976L27.886 28.0503C29.8135 27.2472 31.069 25.3639 31.069 23.2758V22.4137C32.4973 22.4137 33.6552 21.2558 33.6552 19.8275C33.6552 18.3992 32.4973 17.2413 31.069 17.2413V15.5172C31.069 13.1367 29.1391 11.2068 26.7586 11.2068H11.2415C8.86097 11.2068 6.93113 13.1367 6.93113 15.5172V17.2413C5.50279 17.2413 4.34493 18.3992 4.34493 19.8275C4.34493 21.2558 5.50279 22.4137 6.93113 22.4137V23.2758C6.93113 25.3639 8.18662 27.2472 10.1141 28.0503L13.8277 29.5977V32.378C13.8277 33.1201 13.3528 33.7789 12.6488 34.0136L11.6022 34.3987C11.3637 34.1235 10.9653 34.0202 10.6111 34.1763L8.86129 34.9474C8.59136 34.7619 8.22778 34.7392 7.9294 34.9182L5.09773 36.6172C4.76368 36.8176 4.61519 37.2079 4.70517 37.5661C4.35312 38.0982 4.12801 38.6965 4.0431 39.333L4.0014 39.6459C4.0014 39.6462 4.00129 39.6464 4.00129 39.6466L3.01121 47.072C2.9014 47.8957 3.1903 48.6705 3.71983 49.216C3.72047 49.2166 3.72123 49.2172 3.72187 49.218C4.1889 49.6981 4.84256 50 5.57467 50H8.65526H29.3448H32.4253C33.9895 49.9999 35.1957 48.6222 34.989 47.0719Z" fill="#F6B47B"/>
<path d="M34.9889 47.0719L33.957 39.333C33.7682 37.9169 32.8908 36.6867 31.4458 35.9643L27.3891 34.1764C26.9399 33.9784 26.4185 34.1963 26.2439 34.6549C25.1323 37.5767 22.3122 39.655 19.0001 39.655C15.6879 39.655 12.868 37.5766 11.7562 34.6547C11.5816 34.196 11.0601 33.9782 10.611 34.1761L6.55423 35.9641C5.1092 36.6866 4.23183 37.9168 4.04304 39.3328L3.01115 47.0718C2.80447 48.6221 4.0105 49.9998 5.5746 49.9998H32.4252C33.9896 49.9999 35.1957 48.6222 34.9889 47.0719Z" fill="#00858A"/>
<path d="M19 0C12.9656 0 7.90095 2.04741 5.20699 7.75859C2.51304 13.4698 4.12941 17.1335 0.896667 25.862C0.896667 25.862 6.30721 31.4381 17.6686 31.8559L18.138 31.0343L12.9656 26.724C12.9656 26.724 12.5345 24.5689 12.1035 15.5172C11.6725 6.46549 17.6352 0 19 0Z" fill="#5E342E"/>
<path d="M24.1724 29.5253H13.8277V32.3779C13.8277 32.9913 13.5025 33.5472 12.9923 33.8543C20.204 35.1001 24.1724 29.5253 24.1724 29.5253Z" fill="#E2A071"/>
<path d="M31.0689 17.2413V15.5172C31.0689 13.1367 29.1391 11.2068 26.7586 11.2068H11.2414C8.86095 11.2068 6.93111 13.1367 6.93111 15.5172V17.2413C5.50277 17.2413 4.34491 18.3992 4.34491 19.8275C4.34491 21.2558 5.50277 22.4137 6.93111 22.4137V23.2758C6.93111 25.3639 8.1866 27.2472 10.1141 28.0503L15.6842 30.3712C16.7348 30.809 17.8618 31.0343 18.9999 31.0343C20.1381 31.0343 21.2649 30.8089 22.3155 30.3712L27.886 28.0502C29.8134 27.2472 31.0689 25.3639 31.0689 23.2758V22.4137C32.4973 22.4137 33.6551 21.2558 33.6551 19.8275C33.6551 18.3992 32.4973 17.2413 31.0689 17.2413Z" fill="#FDC88E"/>
<path d="M12.9656 20.6896C12.4914 20.6896 12.1035 20.3016 12.1035 19.8275V18.9654C12.1035 18.4913 12.4914 18.1034 12.9656 18.1034C13.4397 18.1034 13.8276 18.4913 13.8276 18.9654V19.8275C13.8276 20.3016 13.4397 20.6896 12.9656 20.6896Z" fill="#623F33"/>
<path d="M25.0345 20.6896C24.5604 20.6896 24.1724 20.3016 24.1724 19.8275V18.9654C24.1724 18.4913 24.5604 18.1034 25.0345 18.1034C25.5086 18.1034 25.8966 18.4913 25.8966 18.9654V19.8275C25.8966 20.3016 25.5086 20.6896 25.0345 20.6896Z" fill="#623F33"/>
<path d="M19 26.7476C17.4674 26.7476 16.0338 26.3705 15.0669 25.7126C14.6733 25.4449 14.571 24.9086 14.8392 24.5151C15.1064 24.122 15.6431 24.0196 16.0367 24.2874C16.7144 24.7483 17.8222 25.0236 19 25.0236C20.1778 25.0236 21.2857 24.7483 21.9634 24.2874C22.3578 24.0189 22.8932 24.1216 23.1609 24.5151C23.429 24.9086 23.3267 25.4449 22.9332 25.7126C21.9664 26.3705 20.5327 26.7476 19 26.7476Z" fill="#A46D4D"/>
<path d="M6.93111 15.5172V17.2413C5.50277 17.2413 4.34491 18.3992 4.34491 19.8275C4.34491 21.2558 5.50277 22.4137 6.93111 22.4137V23.2758C6.93111 25.3639 8.1866 27.2472 10.1141 28.0503L15.6841 30.3712C15.9567 30.4848 16.2349 30.5826 16.5167 30.6674C14.0551 28.8667 12.4165 27.2924 11.4564 26.2631C10.7579 25.5143 10.3794 24.526 10.3794 23.5018V17.2413C12.4627 17.2413 24.4238 16.5943 27.8362 12.1762C27.8362 12.1762 27.8317 11.2154 27.8362 11.2094L10.3794 11.2937C8.41203 11.6932 6.93111 13.4319 6.93111 15.5172Z" fill="#F6B47B"/>
<path d="M8.65527 9.80556V15.5172C8.65527 15.5172 14.7972 15.5969 20.7241 14.8344L23.3104 12.931L23.3108 14.4394C26.1525 13.9277 28.7103 13.1752 30.2069 12.0689V9.80556H8.65527Z" fill="#6E4439"/>
<path d="M28.8962 35.2005L25.7942 40.1636C25.3216 40.9198 24.4928 41.3791 23.6011 41.3791H14.399C13.5073 41.3791 12.6785 40.9198 12.2059 40.1636L9.10397 35.2005C8.85483 34.8019 8.33242 34.6764 7.92941 34.9182L5.09774 36.6172C4.68427 36.8652 4.55464 37.4044 4.81024 37.8133L8.65527 43.9653H29.3448L33.1899 37.8132C33.4455 37.4043 33.3158 36.8652 32.9024 36.6171L30.0707 34.9181C29.6678 34.6764 29.1453 34.802 28.8962 35.2005Z" fill="#57B9DD"/>
<path d="M29.3448 43.9653H8.65527V49.9998H29.3448V43.9653Z" fill="#43A0C5"/>
<path d="M13.3966 45.6895C15.063 45.6895 16.4139 44.3386 16.4139 42.6722C16.4139 41.0059 15.063 39.655 13.3966 39.655C11.7303 39.655 10.3794 41.0059 10.3794 42.6722C10.3794 44.3386 11.7303 45.6895 13.3966 45.6895Z" fill="#FFC33D"/>
<path d="M14.1253 41.3164C13.8408 41.3164 13.5834 41.4315 13.3966 41.6176C13.2099 41.4315 12.9524 41.3164 12.6679 41.3164C12.0978 41.3164 11.6356 41.7786 11.6356 42.3486C11.6356 43.1381 12.5617 44.0868 13.3966 44.4739C14.2315 44.0869 15.1576 43.1381 15.1576 42.3486C15.1576 41.7786 14.6954 41.3164 14.1253 41.3164Z" fill="#FF4F4F"/>
<path d="M12.6688 9.80556H8.65527V15.5172C8.65527 15.5172 10.0283 15.535 12.1019 15.4732C12.0096 13.4378 12.2405 11.5341 12.6688 9.80556Z" fill="#5E342E"/>
</svg>
