<svg width="24" height="24" viewBox="0 0 24 24" fill="none" xmlns="http://www.w3.org/2000/svg">
    <defs>
        <linearGradient id="paint0_linear" x1="12.6327" y1="-5.26772" x2="26.5146" y2="14.182" gradientUnits="userSpaceOnUse">
            <stop offset="0" stop-color="#3DABE9"/>
            <stop offset="1" stop-color="#1465DD"/>
        </linearGradient>
    </defs>
<path d="M11.2836 0.578283C11.4884 0.41897 11.7405 0.332474 11.9999 0.332474C12.2594 0.332474 12.5115 0.41897 12.7163 0.578283L22.3156 8.04495C22.7366 8.37243 23.0771 8.79179 23.3113 9.271C23.5454 9.75021 23.667 10.2766 23.6666 10.8099V21.3333C23.6666 21.9521 23.4208 22.5456 22.9832 22.9832C22.5456 23.4208 21.9521 23.6666 21.3333 23.6666H16.6666C16.0477 23.6666 15.4543 23.4208 15.0167 22.9832C14.5791 22.5456 14.3333 21.9521 14.3333 21.3333V14.3333H9.66659V21.3333C9.66659 21.9521 9.42075 22.5456 8.98317 22.9832C8.54558 23.4208 7.95209 23.6666 7.33325 23.6666H2.66659C2.04775 23.6666 1.45425 23.4208 1.01667 22.9832C0.579085 22.5456 0.333252 21.9521 0.333252 21.3333V10.8099C0.333252 9.72728 0.832585 8.70995 1.68659 8.04495L11.2836 0.578283ZM11.9999 2.97695L3.11692 9.88595C2.97628 9.99535 2.86257 10.1355 2.78451 10.2957C2.70644 10.4558 2.66611 10.6318 2.66659 10.8099V21.3333H7.33325V14.3333C7.33325 13.7144 7.57909 13.121 8.01667 12.6834C8.45426 12.2458 9.04775 12 9.66659 12H14.3333C14.9521 12 15.5456 12.2458 15.9832 12.6834C16.4208 13.121 16.6666 13.7144 16.6666 14.3333V21.3333H21.3333V10.8099C21.3337 10.6318 21.2934 10.4558 21.2153 10.2957C21.1373 10.1355 21.0236 9.99535 20.8829 9.88595L11.9999 2.97928V2.97695Z" fill="url(#paint0_linear)"/>
</svg>
