<svg width="24" height="24" viewBox="0 0 24 24" fill="none" xmlns="http://www.w3.org/2000/svg">
<path d="M11.2837 0.578283C11.4885 0.41897 11.7406 0.332474 12 0.332474C12.2595 0.332474 12.5116 0.41897 12.7164 0.578283L22.3157 8.04495C22.7367 8.37243 23.0773 8.79179 23.3114 9.271C23.5456 9.75021 23.6671 10.2766 23.6667 10.8099V21.3333C23.6667 21.9521 23.4209 22.5456 22.9833 22.9832C22.5457 23.4208 21.9522 23.6666 21.3334 23.6666H16.6667C16.0479 23.6666 15.4544 23.4208 15.0168 22.9832C14.5792 22.5456 14.3334 21.9521 14.3334 21.3333V14.3333H9.66671V21.3333C9.66671 21.9521 9.42087 22.5456 8.98329 22.9832C8.5457 23.4208 7.95221 23.6666 7.33337 23.6666H2.66671C2.04787 23.6666 1.45438 23.4208 1.01679 22.9832C0.579207 22.5456 0.333374 21.9521 0.333374 21.3333V10.8099C0.333374 9.72728 0.832707 8.70995 1.68671 8.04495L11.2837 0.578283ZM12 2.97695L3.11704 9.88595C2.9764 9.99535 2.86269 10.1355 2.78463 10.2957C2.70657 10.4558 2.66623 10.6318 2.66671 10.8099V21.3333H7.33337V14.3333C7.33337 13.7144 7.57921 13.121 8.01679 12.6834C8.45438 12.2458 9.04787 12 9.66671 12H14.3334C14.9522 12 15.5457 12.2458 15.9833 12.6834C16.4209 13.121 16.6667 13.7144 16.6667 14.3333V21.3333H21.3334V10.8099C21.3339 10.6318 21.2935 10.4558 21.2155 10.2957C21.1374 10.1355 21.0237 9.99535 20.883 9.88595L12 2.97928V2.97695Z" fill="white"/>
</svg>
