<svg width="34" height="34" viewBox="0 0 34 34" fill="none" xmlns="http://www.w3.org/2000/svg">
<defs>
<linearGradient id="paint0_linear" x1="17.9041" y1="-7.66666" x2="37.7346" y2="20.1183" gradientUnits="userSpaceOnUse">
<stop stop-color="#3DABE9"/>
<stop offset="1" stop-color="#1465DD"/>
</linearGradient>
</defs>
<path d="M24.8452 0.821679C24.6907 0.666608 24.507 0.543628 24.3048 0.459819C24.1025 0.37601 23.8857 0.333028 23.6668 0.333345H10.3335C10.1146 0.333028 9.89779 0.37601 9.69556 0.459819C9.49333 0.543628 9.30968 0.666608 9.15517 0.821679L0.821831 9.15501C0.66676 9.30952 0.543781 9.49318 0.459972 9.69541C0.376163 9.89763 0.33318 10.1144 0.333498 10.3333V23.6667C0.333498 24.11 0.508498 24.5333 0.821831 24.845L9.15517 33.1784C9.30968 33.3334 9.49333 33.4564 9.69556 33.5402C9.89779 33.624 10.1146 33.667 10.3335 33.6667H23.6668C24.1102 33.6667 24.5335 33.4917 24.8452 33.1784L33.1785 24.845C33.3336 24.6905 33.4566 24.5069 33.5404 24.3046C33.6242 24.1024 33.6672 23.8856 33.6668 23.6667V10.3333C33.6672 10.1144 33.6242 9.89763 33.5404 9.69541C33.4566 9.49318 33.3336 9.30952 33.1785 9.15501L24.8452 0.821679ZM18.6668 25.3333H15.3335V22H18.6668V25.3333ZM18.6668 18.6667H15.3335V8.66668H18.6668V18.6667Z" fill="url(#paint0_linear)"/>
</svg>
