<svg width="30" height="24" viewBox="0 0 30 24" fill="none" xmlns="http://www.w3.org/2000/svg">
<defs>
<linearGradient id="paint0_linear" x1="15.7683" y1="-4.77333" x2="28.0479" y2="16.7334" gradientUnits="userSpaceOnUse">
<stop stop-color="#3DABE9"/>
<stop offset="1" stop-color="#1465DD"/>
</linearGradient>
</defs>
<path d="M5.43742 0.666672H24.5624C25.7384 0.666595 26.8699 1.11654 27.7247 1.92421C28.5796 2.73187 29.0929 3.83603 29.1595 5.01017L29.1666 5.27084V18.7292C29.1667 19.9052 28.7167 21.0367 27.909 21.8915C27.1014 22.7463 25.9972 23.2597 24.8231 23.3263L24.5624 23.3333H5.43742C4.26139 23.3334 3.12991 22.8835 2.27509 22.0758C1.42027 21.2681 0.906917 20.164 0.840335 18.9898L0.833252 18.7292V5.27084C0.833175 4.09481 1.28312 2.96333 2.09079 2.10851C2.89845 1.25369 4.00261 0.740337 5.17675 0.673755L5.43742 0.666672H24.5624H5.43742ZM27.0416 8.27842L15.4958 14.3559C15.3654 14.4248 15.2221 14.4658 15.075 14.4763C14.928 14.4867 14.7803 14.4665 14.6415 14.4168L14.5055 14.3573L2.95825 8.27984V18.7292C2.95828 19.3514 3.19224 19.9508 3.61372 20.4085C4.03519 20.8662 4.61334 21.1486 5.23342 21.1998L5.43742 21.2083H24.5624C25.1848 21.2083 25.7845 20.9741 26.2422 20.5524C26.6999 20.1306 26.9822 19.5521 27.0331 18.9318L27.0416 18.7292V8.27842ZM24.5624 2.79167H5.43742C4.81523 2.79169 4.2158 3.02566 3.75812 3.44713C3.30043 3.86861 3.01795 4.44676 2.96675 5.06684L2.95825 5.27084V5.87859L14.9999 12.2153L27.0416 5.87717V5.27084C27.0415 4.64843 26.8074 4.04881 26.3856 3.59109C25.9638 3.13336 25.3853 2.85103 24.765 2.80017L24.5624 2.79167Z" fill="url(#paint0_linear)"/>
</svg>
