<svg width="26" height="30" viewBox="0 0 26 30" fill="none" xmlns="http://www.w3.org/2000/svg">
<path d="M24.6016 0H1.39844C0.751211 0 0.226562 0.524648 0.226562 1.17188V24.375C0.226562 25.0222 0.751211 25.5469 1.39844 25.5469H8.06148L12.1714 29.6568C12.629 30.1144 13.371 30.1144 13.8286 29.6568L17.9385 25.5469H24.6016C25.2488 25.5469 25.7734 25.0222 25.7734 24.375V1.17188C25.7734 0.524648 25.2488 0 24.6016 0ZM23.4297 23.2031H17.4531C17.1423 23.2031 16.8442 23.3266 16.6245 23.5464L13 27.1709L9.37551 23.5464C9.15578 23.3266 8.85766 23.2031 8.54688 23.2031H2.57031V2.34375H23.4297V23.2031ZM14.1545 11.6781V17.3171C14.1545 17.6723 13.6365 18.0275 13.0001 18.0275C12.334 18.0275 11.8604 17.6723 11.8604 17.3171V11.6781C11.8604 11.2637 12.334 10.9825 13.0001 10.9825C13.6365 10.9825 14.1545 11.2637 14.1545 11.6781ZM11.7865 8.55522C11.7865 7.99277 12.3193 7.5044 13.0001 7.5044C13.6661 7.5044 14.1989 7.99277 14.1989 8.55522C14.1989 9.11766 13.6661 9.62086 13.0001 9.62086C12.3193 9.62086 11.7865 9.11766 11.7865 8.55522Z" fill="#FFCB7D"/>
</svg>
