<svg width="123" height="123" viewBox="0 0 123 123" fill="none" xmlns="http://www.w3.org/2000/svg">
    <defs>

        <linearGradient id="paint0_linear" x1="62.2861" y1="22.2237" x2="84.6217" y2="65.9589" gradientUnits="userSpaceOnUse">
            <stop stop-color="#3DABE9"/>
            <stop offset="1" stop-color="#1465DD"/>
        </linearGradient>
        <linearGradient id="paint1_linear" x1="83.3414" y1="47.4522" x2="84.7003" y2="54.6736" gradientUnits="userSpaceOnUse">
            <stop stop-color="#3DABE9"/>
            <stop offset="1" stop-color="#1465DD"/>
        </linearGradient>
        <linearGradient id="paint2_linear" x1="83.3415" y1="78.9284" x2="85.926" y2="88.727" gradientUnits="userSpaceOnUse">
            <stop stop-color="#3DABE9"/>
            <stop offset="1" stop-color="#1465DD"/>
        </linearGradient>
    </defs>
<mask id="mask0" mask-type="alpha" maskUnits="userSpaceOnUse" x="0" y="0" width="123" height="123">
<circle cx="61.5" cy="61.5" r="61" fill="#ffffff" stroke="#4CAFF4"/>
</mask>
<g mask="url(#mask0)">
<path d="M54.8892 76.4077V80.1785C54.8892 81.6205 54.1982 82.9595 53.0633 83.7165L50.3221 85.5451H70.9281L68.1868 83.7165C67.052 82.9595 66.361 81.6205 66.361 80.1785V76.4077C62.5887 76.4077 58.6613 76.4077 54.8892 76.4077V76.4077Z" fill="#BED8FB"/>
<path d="M54.8892 76.4077V80.1785C54.8892 81.6205 54.1982 82.9595 53.0633 83.7165L50.3221 85.5451H56.9731L57.031 85.5065C58.1658 84.7495 58.8568 83.4105 58.8568 81.9685V79.358C58.8568 78.7172 59.3763 78.1977 60.0171 78.1977H66.361V76.4077H54.8892Z" fill="#9DC6FB"/>
<path d="M72.8464 85.413H48.4038C47.7232 85.413 47.1714 85.9647 47.1714 86.6453V88.0252C47.1714 88.7058 47.7232 89.2576 48.4038 89.2576H72.8464C73.527 89.2576 74.0786 88.7058 74.0786 88.0252V86.6453C74.0788 85.9646 73.527 85.413 72.8464 85.413Z" fill="#DFEBFA"/>
<path d="M54.0013 88.0251V86.6452C54.0013 85.9646 54.553 85.4128 55.2337 85.4128H48.4038C47.7232 85.4128 47.1714 85.9646 47.1714 86.6452V88.0251C47.1714 88.7057 47.7232 89.2575 48.4038 89.2575H55.2335C54.5529 89.2575 54.0013 88.7057 54.0013 88.0251Z" fill="#BED8FB"/>
<path d="M87.6985 32.7424H33.5517C31.5932 32.7424 30 34.3357 30 36.2942V73.0187C30 74.9772 31.5932 76.5704 33.5517 76.5704H87.6985C89.657 76.5704 91.2503 74.9772 91.2503 73.0187V36.2942C91.2501 34.3357 89.6569 32.7424 87.6985 32.7424V32.7424Z" fill="url(#paint0_linear)"/>
<path opacity="0.2" d="M34.1083 73.0187V36.2942C34.1083 34.3357 35.7015 32.7424 37.6599 32.7424H33.5518C31.5933 32.7424 30 34.3357 30 36.2942V73.0187C30 74.9772 31.5933 76.5704 33.5518 76.5704H37.66C35.7015 76.5704 34.1083 74.9772 34.1083 73.0187V73.0187Z" fill="black"/>
<path d="M33.8445 40.9111V41.1576V72.2146C33.8445 72.4969 34.0733 72.7256 34.3555 72.7256H86.8945C87.1768 72.7256 87.4055 72.4969 87.4055 72.2146C87.4055 71.3868 87.4055 49.9345 87.4055 40.9111H33.8445Z" fill="#DFEBFA"/>
<path d="M37.542 72.2147V41.1576V40.9111H33.8445V41.1576V72.2146C33.8445 72.4969 34.0733 72.7256 34.3555 72.7256H38.0529C37.7708 72.7257 37.542 72.497 37.542 72.2147Z" fill="#BED8FB"/>
<path d="M86.8946 36.5869H39.2714V41.1577H87.4056C87.4056 39.0184 87.4056 37.5282 87.4056 37.0979C87.4056 36.8157 87.1769 36.5869 86.8946 36.5869V36.5869Z" fill="#80B4FB"/>
<path d="M39.3947 36.5869H34.3557C34.0734 36.5869 33.8447 36.8157 33.8447 37.0979V41.1577H39.3947V36.5869Z" fill="#FF656F"/>
<path d="M38.0529 36.5869H34.3557C34.0734 36.5869 33.8447 36.8157 33.8447 37.0979V41.1577H37.5419V37.0979C37.5419 36.8158 37.7707 36.5869 38.0529 36.5869V36.5869Z" fill="#FF4756"/>
<path d="M94 54.8215V51.6483C94 50.1187 92.7599 48.8785 91.2301 48.8785H74.2301C72.7004 48.8785 71.4603 50.1187 71.4603 51.6483V54.8215H94Z" fill="url(#paint1_linear)"/>
<path opacity="0.2" d="M78.3137 48.8785H74.2303C72.7005 48.8785 71.4604 50.1187 71.4604 51.6483V54.8215H75.5438V51.6483C75.5438 50.1187 76.7839 48.8785 78.3137 48.8785Z" fill="black"/>
<path d="M71.4604 80.9276V86.4876C71.4604 88.0174 72.7005 89.2575 74.2303 89.2575H91.2303C92.76 89.2575 94.0001 88.0174 94.0001 86.4876V80.9276H71.4604Z" fill="url(#paint2_linear)"/>
<path opacity="0.2" d="M75.5438 86.4876V80.9276H71.4604V86.4876C71.4604 88.0174 72.7005 89.2575 74.2303 89.2575H78.3137C76.7839 89.2575 75.5438 88.0174 75.5438 86.4876Z" fill="black"/>
<path d="M71.4604 58.4443H94V81.122H71.4604V58.4443Z" fill="white"/>
<path opacity="0.2" d="M71.4604 58.4443H75.5438V81.122H71.4604V58.4443Z" fill="black"/>
<path opacity="0.5" d="M82.7301 86.7883C83.6583 86.7883 84.4108 86.0358 84.4108 85.1076C84.4108 84.1794 83.6583 83.427 82.7301 83.427C81.8019 83.427 81.0495 84.1794 81.0495 85.1076C81.0495 86.0358 81.8019 86.7883 82.7301 86.7883Z" fill="black"/>
<path d="M75.5438 54.6272H94V58.7021H75.5438V54.6272Z" fill="#80B4FB"/>
<path d="M71.4604 54.6272H75.5438V58.7021H71.4604V54.6272Z" fill="#FF4756"/>
<path d="M64.3643 53.5951H50.0649C49.5315 53.5951 49.0992 53.1627 49.0992 52.6293C49.0992 52.0959 49.5315 51.6636 50.0649 51.6636H64.3643C64.8977 51.6636 65.33 52.0959 65.33 52.6293C65.33 53.1627 64.8977 53.5951 64.3643 53.5951Z" fill="#9DC6FB"/>
<path d="M67.2257 62.2199H53.5475C53.0141 62.2199 52.5817 61.7876 52.5817 61.2542C52.5817 60.7208 53.0141 60.2885 53.5475 60.2885H67.2257C67.7591 60.2885 68.1915 60.7208 68.1915 61.2542C68.1915 61.7876 67.7591 62.2199 67.2257 62.2199Z" fill="#9DC6FB"/>
<path d="M67.1678 52.2874L63.3752 49.883C63.1057 49.7122 62.7536 49.9058 62.7536 50.2249V55.0338C62.7536 55.3529 63.1056 55.5465 63.3752 55.3757L67.1678 52.9713C67.4186 52.8123 67.4186 52.4464 67.1678 52.2874Z" fill="#9DC6FB"/>
<path d="M50.1227 60.9123L53.9153 58.5079C54.1848 58.337 54.537 58.5307 54.537 58.8498V63.6587C54.537 63.9778 54.185 64.1714 53.9153 64.0005L50.1227 61.5962C49.872 61.437 49.872 61.0713 50.1227 60.9123V60.9123Z" fill="#9DC6FB"/>
<path d="M67.168 52.2874L65.8819 51.472L63.3754 53.061C63.1059 53.2319 62.7537 53.0383 62.7537 52.7192V55.0337C62.7537 55.3528 63.1057 55.5464 63.3754 55.3756L67.168 52.9712C67.4188 52.8123 67.4188 52.4464 67.168 52.2874V52.2874Z" fill="#80B4FB"/>
<path d="M53.9153 61.6859L51.4088 60.0969L50.1227 60.9123C49.872 61.0713 49.872 61.4372 50.1227 61.5962L53.9153 64.0005C54.1848 64.1714 54.537 63.9778 54.537 63.6587V61.3442C54.537 61.6632 54.1848 61.8569 53.9153 61.6859V61.6859Z" fill="#80B4FB"/>
<rect x="108.194" y="7.99216" width="7" height="141" transform="rotate(45 108.194 7.99216)" fill="#4CAFF4" stroke="#001019" stroke-width="2"/>

<circle cx="61.5" cy="61.5" r="61" stroke="#4CAFF4"/>

</g>
</svg>
