<svg width="26" height="28" viewBox="0 0 26 28" fill="none" xmlns="http://www.w3.org/2000/svg">
<defs>
<linearGradient id="paint0_linear" x1="13.7122" y1="-5.46157" x2="29.6882" y2="15.3206" gradientUnits="userSpaceOnUse">
<stop stop-color="#3DABE9"/>
<stop offset="1" stop-color="#1465DD"/>
</linearGradient>
</defs>
<path d="M20.5623 17.75C19.8606 17.7535 19.1686 17.9146 18.5374 18.2212C17.9062 18.5279 17.3519 18.9724 16.9155 19.5219L10.0623 15.2375C10.3121 14.4314 10.3121 13.5686 10.0623 12.7625L16.9155 8.47812C17.611 9.33941 18.589 9.92672 19.6761 10.136C20.7633 10.3453 21.8894 10.163 22.855 9.62152C23.8206 9.08001 24.5634 8.21421 24.9518 7.17748C25.3402 6.14075 25.3491 5.00001 24.977 3.95734C24.6048 2.91466 23.8757 2.03736 22.9186 1.48083C21.9616 0.924306 20.8384 0.724477 19.7482 0.916746C18.6579 1.10901 17.6709 1.68097 16.9619 2.53129C16.253 3.38162 15.8679 4.45542 15.8748 5.56249C15.8793 5.98172 15.9424 6.39827 16.0623 6.79999L9.20921 11.0844C8.60419 10.3227 7.77722 9.76816 6.84292 9.49755C5.90862 9.22694 4.91327 9.25368 3.99485 9.57407C3.07643 9.89446 2.28042 10.4926 1.71717 11.2857C1.15392 12.0787 0.851318 13.0273 0.851318 14C0.851318 14.9727 1.15392 15.9213 1.71717 16.7143C2.28042 17.5074 3.07643 18.1055 3.99485 18.4259C4.91327 18.7463 5.90862 18.773 6.84292 18.5024C7.77722 18.2318 8.60419 17.6773 9.20921 16.9156L16.0623 21.2C15.9424 21.6017 15.8793 22.0183 15.8748 22.4375C15.8748 23.3646 16.1498 24.2709 16.6648 25.0417C17.1799 25.8126 17.912 26.4134 18.7685 26.7682C19.625 27.123 20.5675 27.2158 21.4768 27.0349C22.3861 26.8541 23.2213 26.4076 23.8769 25.7521C24.5325 25.0965 24.9789 24.2613 25.1598 23.352C25.3406 22.4427 25.2478 21.5002 24.893 20.6437C24.5382 19.7871 23.9374 19.055 23.1666 18.54C22.3957 18.0249 21.4894 17.75 20.5623 17.75ZM20.5623 2.74999C21.1186 2.74999 21.6624 2.91494 22.1249 3.22398C22.5874 3.53303 22.9479 3.97228 23.1607 4.4862C23.3736 5.00011 23.4293 5.56561 23.3208 6.11118C23.2123 6.65676 22.9444 7.1579 22.5511 7.55123C22.1577 7.94457 21.6566 8.21243 21.111 8.32095C20.5655 8.42947 20 8.37378 19.486 8.1609C18.9721 7.94803 18.5329 7.58755 18.2238 7.12503C17.9148 6.66252 17.7498 6.11875 17.7498 5.56249C17.7498 4.81657 18.0462 4.1012 18.5736 3.57376C19.101 3.04631 19.8164 2.74999 20.5623 2.74999ZM5.56234 16.8125C5.00608 16.8125 4.46231 16.6475 3.9998 16.3385C3.53728 16.0295 3.1768 15.5902 2.96393 15.0763C2.75105 14.5624 2.69536 13.9969 2.80388 13.4513C2.9124 12.9057 3.18026 12.4046 3.5736 12.0113C3.96693 11.6179 4.46807 11.3501 5.01365 11.2415C5.55922 11.133 6.12472 11.1887 6.63863 11.4016C7.15255 11.6145 7.5918 11.9749 7.90085 12.4375C8.20989 12.9 8.37484 13.4437 8.37484 14C8.37484 14.7459 8.07852 15.4613 7.55107 15.9887C7.02363 16.5162 6.30826 16.8125 5.56234 16.8125ZM20.5623 25.25C20.0061 25.25 19.4623 25.085 18.9998 24.776C18.5373 24.467 18.1768 24.0277 17.9639 23.5138C17.7511 22.9999 17.6954 22.4344 17.8039 21.8888C17.9124 21.3432 18.1803 20.8421 18.5736 20.4488C18.9669 20.0554 19.4681 19.7876 20.0136 19.679C20.5592 19.5705 21.1247 19.6262 21.6386 19.8391C22.1525 20.052 22.5918 20.4124 22.9008 20.875C23.2099 21.3375 23.3748 21.8812 23.3748 22.4375C23.3748 23.1834 23.0785 23.8988 22.5511 24.4262C22.0236 24.9537 21.3083 25.25 20.5623 25.25Z" fill="url(#paint0_linear)"/>
</svg>
