<svg xmlns="http://www.w3.org/2000/svg" width="20" height="27" viewBox="0 0 20 27">
    <g fill="none" fill-rule="evenodd">
        <g fill="#1A1B1D" fill-rule="nonzero">
            <path d="M205.986 663.821c.28-.56.96-.787 1.52-.507.22.11.398.288.508.507l8.366 16.733c.28.56.053 1.24-.507 1.52-.157.08-.33.12-.507.12H208.5v6.056c0 .828-.672 1.5-1.5 1.5-.78 0-1.42-.595-1.493-1.356l-.007-.144v-6.056h-6.867c-.584 0-1.065-.442-1.126-1.01l-.007-.123c0-.176.041-.35.12-.507z" transform="translate(-197 -663)"/>
        </g>
    </g>
</svg>
