<svg xmlns="http://www.w3.org/2000/svg" width="28" height="28" fill="none" viewBox="0 0 28 28">
    <g clip-path="url(#clip0)">
        <path fill="#fff" d="M4.359 8.407H23.64c.212 0 .416-.084.565-.234l3.196-3.196c.31-.31.313-.813.005-1.125L24.211.602c-.15-.152-.355-.238-.57-.238H4.36C3.29.364 2.286.79 1.527 1.567.777 2.335.364 3.345.364 4.412c0 2.203 1.792 3.995 3.995 3.995zm18.947-6.445l2.406 2.445L23.31 6.81H7.553c.502-.668.8-1.498.8-2.397 0-.893-.29-1.746-.824-2.45h15.777zm-18.947 0c1.299 0 2.397 1.122 2.397 2.45 0 1.322-1.076 2.397-2.397 2.397-1.322 0-2.397-1.075-2.397-2.397 0-1.328 1.097-2.45 2.397-2.45zm19.847 8.277c-.15-.15-.353-.234-.565-.234H4.36C2.156 10.005.364 11.797.364 14c0 2.203 1.792 3.995 3.995 3.995H23.64c.212 0 .416-.084.565-.234l3.196-3.196c.312-.312.312-.818 0-1.13l-3.196-3.196zM4.36 16.397c-1.322 0-2.397-1.075-2.397-2.397 0-1.322 1.075-2.397 2.397-2.397 1.321 0 2.397 1.075 2.397 2.397 0 1.322-1.076 2.397-2.397 2.397zm18.951 0H7.553c.502-.668.8-1.498.8-2.397 0-.899-.298-1.729-.8-2.397H23.31L25.707 14l-2.397 2.397zm.896 3.43c-.15-.15-.353-.234-.565-.234H4.36c-2.203 0-3.995 1.792-3.995 3.995 0 1.067.413 2.077 1.163 2.845.759.776 1.764 1.203 2.832 1.203H23.64c.215 0 .42-.086.57-.238l3.196-3.25c.308-.312.305-.815-.005-1.125l-3.196-3.196zM4.36 26.038c-1.3 0-2.397-1.122-2.397-2.45 0-1.322 1.075-2.397 2.397-2.397 1.321 0 2.397 1.075 2.397 2.397 0 1.328-1.098 2.45-2.397 2.45zm18.947 0H7.53c.534-.704.825-1.557.825-2.45 0-.899-.299-1.729-.801-2.397H23.31l2.402 2.402-2.405 2.445zm-6.11-3.249H14c-.441 0-.799.358-.799.8 0 .44.358.798.799.798h3.196c.441 0 .799-.358.799-.799 0-.441-.358-.799-.799-.799zm0-9.588H14c-.441 0-.799.358-.799.799 0 .441.358.799.799.799h3.196c.441 0 .799-.358.799-.799 0-.441-.358-.799-.799-.799zM14 5.211h3.196c.441 0 .799-.358.799-.8 0-.44-.358-.798-.799-.798H14c-.441 0-.799.358-.799.799 0 .441.358.799.799.799z"/>
    </g>
    <defs>
        <clipPath id="clip0">
            <path fill="#fff" d="M0 0H27.273V27.273H0z" transform="translate(.364 .364)"/>
        </clipPath>
    </defs>
</svg>
