<svg width="30" height="30" viewBox="0 0 30 30" fill="none" xmlns="http://www.w3.org/2000/svg">
<path d="M26.6016 0H3.39844C2.75121 0 2.22656 0.524648 2.22656 1.17188V24.375C2.22656 25.0222 2.75121 25.5469 3.39844 25.5469H10.0615L14.1714 29.6568C14.629 30.1144 15.371 30.1144 15.8286 29.6568L19.9385 25.5469H26.6016C27.2488 25.5469 27.7734 25.0222 27.7734 24.375V1.17188C27.7734 0.524648 27.2488 0 26.6016 0ZM25.4297 23.2031H19.4531C19.1423 23.2031 18.8442 23.3266 18.6245 23.5464L15 27.1709L11.3755 23.5464C11.1558 23.3266 10.8577 23.2031 10.5469 23.2031H4.57031V2.34375H25.4297V23.2031ZM16.1545 11.6781V17.3171C16.1545 17.6723 15.6365 18.0275 15.0001 18.0275C14.334 18.0275 13.8604 17.6723 13.8604 17.3171V11.6781C13.8604 11.2637 14.334 10.9825 15.0001 10.9825C15.6365 10.9825 16.1545 11.2637 16.1545 11.6781ZM13.7865 8.55522C13.7865 7.99277 14.3193 7.5044 15.0001 7.5044C15.6661 7.5044 16.1989 7.99277 16.1989 8.55522C16.1989 9.11766 15.6661 9.62086 15.0001 9.62086C14.3193 9.62086 13.7865 9.11766 13.7865 8.55522Z" fill="#FFCB7D"/>
</svg>
