<svg width="18" height="16" viewBox="0 0 18 16" fill="none" xmlns="http://www.w3.org/2000/svg">
<path d="M7.71758 1.89502L1.36508 12.5C1.2341 12.7268 1.1648 12.984 1.16407 13.2459C1.16334 13.5078 1.23119 13.7654 1.3609 13.9929C1.4906 14.2205 1.67762 14.4101 1.90336 14.5429C2.12909 14.6757 2.38568 14.7471 2.64758 14.75H15.3526C15.6145 14.7471 15.8711 14.6757 16.0968 14.5429C16.3225 14.4101 16.5096 14.2205 16.6393 13.9929C16.769 13.7654 16.8368 13.5078 16.8361 13.2459C16.8354 12.984 16.7661 12.7268 16.6351 12.5L10.2826 1.89502C10.1489 1.6746 9.96062 1.49236 9.73597 1.36588C9.51133 1.2394 9.25788 1.17296 9.00008 1.17296C8.74228 1.17296 8.48882 1.2394 8.26418 1.36588C8.03954 1.49236 7.85128 1.6746 7.71758 1.89502V1.89502Z" stroke="white" stroke-width="1.5" stroke-linecap="round" stroke-linejoin="round"/>
<path d="M9 5.75002V8.75002" stroke="white" stroke-width="1.5" stroke-linecap="round" stroke-linejoin="round"/>
<path d="M9 11.75H9.00833" stroke="white" stroke-width="1.5" stroke-linecap="round" stroke-linejoin="round"/>
</svg>
